<svg xmlns="http://www.w3.org/2000/svg" width="1em" height="1em" viewBox="0 0 1024 1024"><path fill="#ffffff" fill-rule="nonzero" d="M 342 300 A 170 170 0 1 1 682 300 A 170 170 0 1 1 342 300 Z M 228 430 A 132 132 0 1 1 492 430 A 132 132 0 1 1 228 430 Z M 532 430 A 132 132 0 1 1 796 430 A 132 132 0 1 1 532 430 Z M 362 470 A 150 150 0 1 1 662 470 A 150 150 0 1 1 362 470 Z M 488 520 L 536 520 L 536 740 L 488 740 Z M 342 712 L 682 712 L 682 772 L 342 772 Z M 378 772 L 646 772 L 604 908 L 420 908 Z"/></svg>
